<?xml version="1.0" encoding="UTF-8"?><svg id="Layer_1" xmlns="http://www.w3.org/2000/svg" width="152.27" height="153.45" viewBox="0 0 152.27 153.45"><path fill="currentColor" d="M144.31,106.09c.07,27.58,13.79-3.91,5.04,47.18l-144.18.17C0,149.12-3.36,119.45,8.94,115.5c.27-28.6,1.45-63.48-1.33-92.36C7.19,18.73-1.85,11.83.34,7.22,3.92-.33,10.02,0,18.41,0l116.16.05c7.36,0,15.94-1.13,17.45,6.98,1.13,6.04-2.64,12.29-7.94,15.66l.23,83.4ZM6.51,4.9v10.82s44.58.06,44.58.06V4.96s-44.58-.06-44.58-.06ZM56.77,4.91l-.48,10.45,16.62.8.48-10.45-16.62-.8ZM94.59,7.53c-1.62-3.59-14.04-2.71-15.08.78-1.95,6.56,4.02,7.82,7.46,8,5.52.29,10.36-2.74,7.63-8.79ZM100.7,4.71l-.06,10.96,46.78.26.06-10.96-46.78-.26ZM15.2,20.49l-1.01,7.07,10.6,1.59,1.01-7.07-10.6-1.59ZM39.1,25.68c0-2.33-1.84-4.21-4.12-4.21s-4.12,1.89-4.12,4.21,1.84,4.21,4.12,4.21,4.12-1.89,4.12-4.21ZM122.14,117.1l-.18-80.58c-9.41-.77-13.39-5.75-14.32-15.38l-62.46.07c-1.35,5.13-1.56,11.47-4,12.15l-10.47,2.94.1,81.07,91.33-.28ZM122.19,25.77c0-2.24-1.78-4.06-3.97-4.06s-3.97,1.82-3.97,4.06,1.78,4.06,3.97,4.06,3.97-1.82,3.97-4.06ZM139.37,23.52l-9.06-2.73c-2.02-.61-4.28,7.25-2.44,8.39,2.45,1.51,8.76-2.09,11.5-5.65ZM15.7,46.03c7.21-5.4,9.53-6.67,8.72-8.37s-7.95-5.42-8.73-3.7c-1.28,2.82-.81,10.05.02,12.08ZM138.53,45.54c.03.23-1-7.64-1.39-10.55-.26-1.97-6.21.82-7.39,2.45s3.31,4.8,8.78,8.09ZM138.21,55.64c-2.67-4.17-7.83-8.51-11.03-10.69l1.2,17.34c1.9,1.43,11.48-4.08,9.82-6.66ZM25.34,62.83l-.88-15.46-12.48,10.4,13.36,5.06ZM24.44,71.02c.38-2.38-5.73-4.93-8.07-4.6s-1.94,7.16-1.33,12.15c.76,2.2,8.9-4.46,9.4-7.55ZM130.94,66.19c-1.93,5.13-2.54,5.65-1.36,6.68,1.51,1.31,6.48,5.69,6.87,4.05l1.93-8c.37-1.53-3.62-2.06-7.45-2.73ZM24.82,95.73l-.1-15.14-12.58,9.16,12.68,5.97ZM128.39,95.7c3.47.16,11.83-5.4,9.86-7.49-2.08-2.21-5.18-4.6-10.26-8.26l.4,15.75ZM14.9,99.17c-.16,1.86-.05,7.48,1.49,6.82l5.67-2.45c1.12-.49-1.05-3.16-2.12-3.83s-4.94-1.84-5.05-.54ZM136.07,105.71c1.09.54.6-4.97.9-6.31.29-1.33-9.51,2.06-6.53,3.53l5.63,2.78ZM21.59,117.76c1.24.28,4.03-3.35,3.77-4.61s-1.57-3.38-2.79-3.04l-4.41,1.22c-.81.23-2.93,2.24-3.46,3.01-.48.7-.37,1.77.51,1.97l6.38,1.45ZM140.07,114.83l-12.46-6.41c-.38,2.53.77,9.6,2.87,9.03l9.59-2.62ZM42.16,146.83l8-24.17-43.4.44-.16,24.8c12.36.6,24.85.51,35.55-1.07ZM106.09,147.85l-8.86-25.08c-14.79-.19-28.57-.05-42.25.62l-7.35,24.59,58.46-.13ZM147.51,147.76l-1.77-24.86-42.53.36,8.25,25.09,36.04-.59Z"/><path fill="currentColor" d="M113.17,56.76c-8.09-6.45-4.17-13.15,2.98-17.12l-2.98,17.12Z"/><path cfill="currentColor" d="M98.94,46.31l4.96-12.01-15.66,2c2.28-2.82,5.08-5.51,7.22-6.57,2.5-1.25,8.98,2.67,11.51,5.22,1.19,1.2,1.01,6.28-.49,7.12l-7.54,4.24Z"/><path fill="currentColor" d="M43.68,41.22l-.75,14.74c-2.91-3.15-6.12-9.52-4.5-11.52l8.28-10.27,9.61,11.78-12.64-4.73Z"/><polygon fill="currentColor" points="51.99 27.93 65.52 32.69 63.84 37.67 50.31 32.92 51.99 27.93"/></svg>